<?xml version="1.0" standalone="no"?>
<!DOCTYPE svg PUBLIC "-//W3C//DTD SVG 20010904//EN"
 "http://www.w3.org/TR/2001/REC-SVG-20010904/DTD/svg10.dtd">
<svg version="1.0" xmlns="http://www.w3.org/2000/svg"
 width="512.000000pt" height="512.000000pt" viewBox="0 0 512.000000 512.000000"
 preserveAspectRatio="xMidYMid meet">
<g transform="translate(0.000000,512.000000) scale(0.050000,-0.050000)"
fill="#000000" stroke="none">
<path d="M1736 10203 c-351 -116 -496 -356 -496 -820 0 -856 375 -1632 1031
-2135 l151 -115 -59 -37 c-254 -161 -295 -581 -80 -825 l80 -91 -102 -114
c-263 -296 -264 -576 -1 -870 l101 -113 -103 -117 c-255 -288 -257 -561 -8
-855 l110 -129 -103 -116 c-259 -293 -257 -564 5 -868 l97 -113 -103 -117
c-254 -291 -253 -571 2 -866 l99 -114 -102 -119 c-255 -298 -250 -585 14 -880
l90 -102 -191 -217 c-239 -271 -253 -292 -237 -358 30 -120 -185 -112 3194
-112 l3097 0 49 49 c88 88 74 115 -247 480 l-140 160 101 120 c252 301 253
561 0 861 l-100 120 100 120 c253 301 253 563 0 859 l-102 119 99 114 c255
295 256 575 2 866 l-103 117 97 113 c261 303 263 576 5 868 l-103 116 110 129
c251 295 248 566 -9 857 l-104 117 60 63 c231 242 201 683 -59 847 l-60 38
151 115 c658 505 1032 1281 1031 2141 -1 392 -73 560 -306 718 -395 268 -879
114 -1099 -348 -746 -1565 -784 -1626 -924 -1480 -147 153 -427 191 -634 84
-100 -51 -118 -55 -140 -30 -132 160 -471 182 -688 45 l-93 -59 -88 58 c-208
138 -536 120 -677 -36 -32 -36 -37 -35 -148 22 -205 106 -488 68 -634 -84
-140 -146 -178 -85 -924 1480 -182 382 -551 562 -909 444z m453 -312 c113 -65
110 -61 553 -967 l365 -746 -102 -89 c-60 -53 -120 -129 -146 -186 -34 -75
-59 -102 -114 -122 -89 -32 -233 -163 -265 -242 -36 -87 -51 -79 -280 157
-466 479 -665 965 -668 1627 l-2 353 60 87 c133 192 395 248 599 128z m6292
14 c72 -36 129 -85 169 -142 l60 -87 -2 -353 c-4 -664 -203 -1148 -668 -1627
-229 -236 -244 -244 -280 -157 -32 79 -176 210 -265 242 -55 20 -80 47 -115
123 -26 57 -84 131 -142 181 -119 103 -156 -8 312 944 410 834 415 842 588
903 117 42 224 34 343 -27z m-3650 -1737 c37 -17 100 -71 139 -120 106 -129
176 -124 316 20 170 176 306 173 484 -8 128 -130 179 -132 312 -12 146 131
332 131 428 -1 93 -128 128 -153 196 -135 241 62 388 -6 446 -205 35 -121 52
-139 155 -158 174 -32 277 -196 229 -364 -41 -144 -28 -175 105 -266 238 -161
244 -298 26 -556 -147 -173 -144 -198 41 -410 245 -281 246 -356 3 -639 -195
-226 -195 -235 -3 -458 245 -286 245 -357 2 -642 -193 -227 -193 -239 -10
-446 253 -286 254 -372 11 -648 -198 -225 -198 -235 8 -474 239 -277 238 -345
-9 -626 -196 -224 -196 -237 0 -460 85 -96 160 -202 173 -245 36 -115 -2 -201
-173 -395 -195 -223 -195 -236 0 -460 l147 -170 -1368 -5 c-753 -3 -1985 -3
-2738 0 l-1369 5 149 170 c195 224 195 237 -1 460 -247 281 -248 349 -9 626
204 237 204 247 17 461 -254 290 -256 356 -16 636 203 238 203 243 8 470 -244
284 -244 356 1 641 193 225 193 233 -2 460 -243 283 -242 358 3 639 194 222
193 233 -1 457 -245 281 -245 361 1 643 185 212 188 237 41 410 -218 258 -212
395 26 556 132 90 146 124 107 259 -50 170 54 339 227 371 103 19 120 37 155
158 58 199 205 267 446 205 68 -18 103 7 196 135 97 134 289 130 439 -9 118
-108 176 -105 292 14 140 145 242 177 370 116z"/>
<path d="M3640 6368 c-163 -71 -227 -201 -140 -288 51 -51 121 -51 205 0 96
59 194 52 285 -20 92 -73 137 -75 201 -11 189 189 -257 447 -551 319z"/>
<path d="M6184 6348 c-170 -84 -227 -193 -149 -285 61 -71 127 -73 214 -4 92
73 189 80 286 21 177 -108 336 65 190 205 -132 126 -361 153 -541 63z"/>
<path d="M4756 6030 c-214 -58 -439 -259 -512 -455 -34 -92 -242 -1057 -271
-1261 -43 -301 155 -635 463 -781 l134 -63 480 -7 c738 -10 976 83 1143 447
108 236 105 286 -57 1070 -139 678 -208 820 -468 972 -180 106 -663 147 -912
78z m694 -283 c242 -83 277 -158 439 -954 145 -707 121 -838 -179 -1000 -115
-62 -1056 -67 -1170 -6 -311 166 -335 291 -189 1006 162 794 196 870 431 953
127 45 538 45 668 1z"/>
<path d="M4749 5031 c-89 -89 -50 -176 128 -281 l102 -60 1 -114 c0 -214 -110
-239 -209 -46 -125 246 -360 135 -252 -119 111 -258 320 -358 527 -253 73 37
75 37 148 0 212 -108 441 12 536 281 84 239 -145 318 -261 91 -101 -197 -209
-171 -209 49 l0 111 99 56 c177 99 221 196 132 285 -65 65 -102 62 -232 -20
-135 -86 -132 -86 -273 -1 -138 83 -172 86 -237 21z"/>
</g>
</svg>
